<svg width="30" height="30" viewBox="0 0 30 30" fill="none" xmlns="http://www.w3.org/2000/svg">
<path d="M7.2109 12.3672C6.91127 12.3672 6.64494 12.4853 6.44518 12.7045C6.22878 12.9238 6.12891 13.1936 6.12891 13.5141C6.12891 13.8346 6.22878 14.0876 6.44518 14.3237C6.66158 14.543 6.91127 14.661 7.2109 14.661C7.51053 14.661 7.77687 14.543 7.99327 14.3237C8.20967 14.1044 8.32619 13.8346 8.32619 13.5141C8.32619 13.1936 8.20967 12.9238 7.99327 12.7045C7.77687 12.4684 7.52718 12.3672 7.2109 12.3672Z" fill="#7E7E7E"/>
<path d="M16.5468 12.3477C16.2472 12.3477 15.9809 12.4657 15.7811 12.685C15.5647 12.9043 15.4648 13.1741 15.4648 13.4946C15.4648 13.815 15.5647 14.068 15.7811 14.3042C15.9975 14.5234 16.2472 14.6415 16.5468 14.6415C16.8465 14.6415 17.1128 14.5234 17.3292 14.3042C17.5456 14.0849 17.6621 13.815 17.6621 13.4946C17.6621 13.1741 17.5456 12.9211 17.3292 12.685C17.1295 12.4489 16.8631 12.3477 16.5468 12.3477Z" fill="#7E7E7E"/>
<path d="M22.789 12.3672C22.4894 12.3672 22.2231 12.4853 22.0233 12.7045C21.8069 12.9238 21.707 13.1936 21.707 13.5141C21.707 13.8346 21.8069 14.0876 22.0233 14.3237C22.2397 14.543 22.4894 14.661 22.789 14.661C23.0887 14.661 23.355 14.543 23.5714 14.3237C23.7878 14.1044 23.9043 13.8346 23.9043 13.5141C23.9043 13.1936 23.7878 12.9238 23.5714 12.7045C23.355 12.4684 23.0887 12.3672 22.789 12.3672Z" fill="#7E7E7E"/>
<path d="M25.5536 4.03516H4.44636C2.83169 4.03516 1.5 5.38448 1.5 7.02054V19.1139C1.5 20.7499 2.83169 22.0992 4.44636 22.0992H12.7361C12.7361 22.0992 14.3342 26.5352 14.9168 26.5352C15.4994 26.5352 17.2306 22.0992 17.2306 22.0992H25.5536C27.1683 22.0992 28.5 20.7499 28.5 19.1139V7.02054C28.5 5.38448 27.1683 4.03516 25.5536 4.03516ZM9.34032 15.2008C8.92417 15.6731 8.27497 15.8755 7.57583 15.8755C6.94328 15.8755 6.47719 15.69 6.14427 15.4201H6.12762V15.7574H4.54624V8.7578H6.12762V11.4396H6.16091C6.59371 11.0685 7.15968 10.9504 7.82552 10.9167C8.39149 10.8998 8.99075 11.254 9.35697 11.6757C9.70654 12.0974 9.97287 12.7552 9.97287 13.4804C9.97287 14.2732 9.77312 14.7286 9.34032 15.2008ZM12.7528 15.8249H11.1381C11.1381 15.8249 11.1381 12.148 11.1381 11.4902C11.1381 10.4951 10.3557 10.3601 10.3557 10.3601V8.62286C10.3557 8.62286 12.6196 8.75779 12.7528 11.5408C12.7528 12.3335 12.7528 15.8249 12.7528 15.8249ZM19.0949 14.4924C18.9618 14.8129 18.762 15.0828 18.4957 15.3358C18.246 15.5719 17.9464 15.7574 17.6134 15.8924C17.2805 16.0273 16.931 16.0948 16.5647 16.0948C16.1985 16.0948 15.849 16.0273 15.5327 15.8924C15.1998 15.7574 14.9001 15.5719 14.6504 15.3358C14.3841 15.0828 14.1843 14.796 14.0512 14.4924C13.918 14.1888 13.8514 13.8515 13.8514 13.4973C13.8514 13.1431 13.918 12.8226 14.0512 12.5022C14.1843 12.1986 14.3841 11.9118 14.6504 11.6588C14.9168 11.4227 15.1998 11.2372 15.5327 11.1022C15.8656 10.9673 16.2152 10.8998 16.5647 10.8998C16.931 10.8998 17.2805 10.9673 17.6134 11.1022C17.9464 11.2372 18.246 11.4227 18.4957 11.6588C18.762 11.9118 18.9451 12.1817 19.0949 12.5022C19.2281 12.8226 19.2947 13.1431 19.2947 13.4973C19.2947 13.8515 19.2281 14.172 19.0949 14.4924ZM25.4538 15.184C25.4538 16.4152 25.2207 17.1573 24.688 17.6802C24.0388 18.3043 23.1233 18.338 22.3576 18.2368V16.9718C23.0068 17.0393 23.889 16.6007 23.889 15.7574V15.437H23.8724C23.5062 15.943 22.9901 16.1285 22.2744 16.1285C21.6252 16.1285 21.0592 15.8924 20.6763 15.437C20.2935 14.9816 20.1104 14.3744 20.1104 13.6154C20.1104 12.7552 20.3268 12.0805 20.7429 11.5745C21.1757 11.0685 21.775 10.8324 22.4741 10.8324C23.09 10.8324 23.4895 10.9842 23.8724 11.3384H23.889V10.9504H25.4704V15.184H25.4538Z" fill="#7E7E7E"/>
</svg>
