<svg width="28" height="28" viewBox="0 0 28 28" fill="none" xmlns="http://www.w3.org/2000/svg">
<path d="M14 28C21.732 28 28 21.732 28 14C28 6.26801 21.732 0 14 0C6.26801 0 0 6.26801 0 14C0 21.732 6.26801 28 14 28Z" fill="#7E7E7E"/>
<path d="M22.6483 11.2691L24.3377 9.43105H20.5913C18.7158 8.14991 16.4507 7.40378 14.0011 7.40378C11.5546 7.40378 9.29588 8.15152 7.42346 9.43105H3.66771L5.3571 11.2691C4.32158 12.2138 3.67242 13.5748 3.67242 15.0858C3.67242 17.9374 5.9844 20.2494 8.83602 20.2494C10.1907 20.2494 11.4248 19.7269 12.3462 18.8729L14.0012 20.6749L15.6561 18.8744C16.5775 19.7285 17.8101 20.2494 19.1647 20.2494C22.0163 20.2494 24.3314 17.9374 24.3314 15.0858C24.333 13.5732 23.6838 12.2123 22.6483 11.2691ZM8.83755 18.5803C6.90725 18.5803 5.34305 17.0161 5.34305 15.0858C5.34305 13.1555 6.90729 11.5913 8.83755 11.5913C10.7678 11.5913 12.3321 13.1555 12.3321 15.0858C12.3321 17.0161 10.7678 18.5803 8.83755 18.5803ZM14.0027 14.9841C14.0027 12.6847 12.3305 10.7106 10.1234 9.86748C11.3169 9.36846 12.6261 9.09159 14.0011 9.09159C15.3761 9.09159 16.6869 9.36846 17.8804 9.86748C15.6749 10.7122 14.0027 12.6847 14.0027 14.9841ZM19.1663 18.5803C17.236 18.5803 15.6717 17.0161 15.6717 15.0858C15.6717 13.1555 17.236 11.5913 19.1663 11.5913C21.0966 11.5913 22.6608 13.1555 22.6608 15.0858C22.6608 17.0161 21.0966 18.5803 19.1663 18.5803ZM19.1663 13.2525C18.1542 13.2525 17.3345 14.0722 17.3345 15.0843C17.3345 16.0963 18.1542 16.916 19.1663 16.916C20.1783 16.916 20.998 16.0963 20.998 15.0843C20.998 14.0737 20.1783 13.2525 19.1663 13.2525ZM10.6693 15.0858C10.6693 16.0979 9.8496 16.9175 8.83755 16.9175C7.82551 16.9175 7.00583 16.0979 7.00583 15.0858C7.00583 14.0737 7.82551 13.2541 8.83755 13.2541C9.8496 13.2525 10.6693 14.0737 10.6693 15.0858Z" fill="#222222"/>
</svg>
