<svg width="28" height="28" viewBox="0 0 28 28" fill="none" xmlns="http://www.w3.org/2000/svg">
<rect width="28" height="28" rx="14" fill="#E1E1E1"/>
<path d="M22.9806 10.8653L24.67 9.02727H20.9236C19.0481 7.74613 16.783 7 14.3334 7C11.8869 7 9.62817 7.74774 7.75575 9.02727H4L5.68939 10.8653C4.65387 11.8101 4.00471 13.171 4.00471 14.6821C4.00471 17.5337 6.31669 19.8456 9.16831 19.8456C10.523 19.8456 11.7571 19.3232 12.6785 18.4691L14.3334 20.2711L15.9884 18.4706C16.9098 19.3247 18.1424 19.8456 19.497 19.8456C22.3486 19.8456 24.6637 17.5337 24.6637 14.6821C24.6653 13.1694 24.0161 11.8085 22.9806 10.8653ZM9.16984 18.1766C7.23954 18.1766 5.67534 16.6124 5.67534 14.6821C5.67534 12.7517 7.23958 11.1875 9.16984 11.1875C11.1001 11.1875 12.6644 12.7517 12.6644 14.6821C12.6644 16.6124 11.1001 18.1766 9.16984 18.1766ZM14.335 14.5804C14.335 12.2809 12.6628 10.3068 10.4557 9.4637C11.6492 8.96468 12.9584 8.68782 14.3334 8.68782C15.7084 8.68782 17.0192 8.96468 18.2127 9.4637C16.0072 10.3084 14.335 12.2809 14.335 14.5804ZM19.4986 18.1766C17.5683 18.1766 16.004 16.6124 16.004 14.6821C16.004 12.7517 17.5683 11.1875 19.4986 11.1875C21.4289 11.1875 22.9931 12.7517 22.9931 14.6821C22.9931 16.6124 21.4289 18.1766 19.4986 18.1766ZM19.4986 12.8487C18.4865 12.8487 17.6668 13.6684 17.6668 14.6805C17.6668 15.6925 18.4865 16.5122 19.4986 16.5122C20.5106 16.5122 21.3303 15.6925 21.3303 14.6805C21.3303 13.67 20.5106 12.8487 19.4986 12.8487ZM11.0016 14.6821C11.0016 15.6941 10.1819 16.5138 9.16984 16.5138C8.1578 16.5138 7.33812 15.6941 7.33812 14.6821C7.33812 13.67 8.1578 12.8503 9.16984 12.8503C10.1819 12.8487 11.0016 13.67 11.0016 14.6821Z" fill="#222222"/>
</svg>
