<svg width="30" height="30" viewBox="0 0 30 30" fill="none" xmlns="http://www.w3.org/2000/svg">
<path fill-rule="evenodd" clip-rule="evenodd" d="M25.7473 5.89461C26.9309 6.20992 27.8623 7.14616 28.1776 8.33949C28.75 10.4982 28.7451 14.9998 28.7451 14.9998C28.7451 14.9998 28.7451 19.5015 28.1727 21.6602C27.8574 22.8487 26.926 23.7849 25.7424 24.1051C23.5983 24.6823 14.9976 24.6823 14.9976 24.6823C14.9976 24.6823 6.39685 24.6823 4.25273 24.1051C3.0691 23.7897 2.13772 22.8535 1.82241 21.6602C1.25 19.5015 1.25 14.9998 1.25 14.9998C1.25 14.9998 1.25 10.4982 1.82726 8.33464C2.14257 7.14616 3.07395 6.20992 4.25759 5.88976C6.4017 5.3125 15.0024 5.3125 15.0024 5.3125C15.0024 5.3125 23.5983 5.3125 25.7473 5.89461ZM19.378 14.9999L12.1889 10.9105V19.0892L19.378 14.9999Z" fill="#E1E1E1"/>
</svg>
