<svg width="30" height="30" viewBox="0 0 30 30" fill="none" xmlns="http://www.w3.org/2000/svg">
<path d="M15.0013 11.042C12.8617 11.042 11.043 12.8607 11.043 15.0003C11.043 17.14 12.8617 18.9587 15.0013 18.9587C17.1409 18.9587 18.9596 17.14 18.9596 15.0003C18.9596 12.8607 17.1409 11.042 15.0013 11.042Z" fill="#E1E1E1"/>
<path d="M20.0739 3.125H10.0341C6.14773 3.125 3.125 6.14773 3.125 9.92614V19.9659C3.125 23.8523 6.14773 26.875 10.0341 26.875H20.0739C23.8523 26.875 26.875 23.8523 26.875 19.9659V9.92614C26.875 6.14773 23.8523 3.125 20.0739 3.125ZM15 21.2614C11.5455 21.2614 8.84659 18.4545 8.84659 15.108C8.84659 11.7614 11.5455 8.84659 15 8.84659C18.4545 8.84659 21.1534 11.6534 21.1534 15C21.1534 18.3466 18.4545 21.2614 15 21.2614ZM21.3693 10.142C20.6136 10.142 19.9659 9.49432 19.9659 8.73864C19.9659 7.98295 20.6136 7.33523 21.3693 7.33523C22.125 7.33523 22.7727 7.98295 22.7727 8.73864C22.7727 9.49432 22.125 10.142 21.3693 10.142Z" fill="#E1E1E1"/>
</svg>
