<svg width="30" height="30" viewBox="0 0 30 30" fill="none" xmlns="http://www.w3.org/2000/svg">
<path d="M7.2109 12.3662C6.91127 12.3662 6.64494 12.4843 6.44518 12.7035C6.22878 12.9228 6.12891 13.1927 6.12891 13.5131C6.12891 13.8336 6.22878 14.0866 6.44518 14.3227C6.66158 14.542 6.91127 14.6601 7.2109 14.6601C7.51053 14.6601 7.77687 14.542 7.99327 14.3227C8.20967 14.1035 8.32619 13.8336 8.32619 13.5131C8.32619 13.1927 8.20967 12.9228 7.99327 12.7035C7.77687 12.4674 7.52718 12.3662 7.2109 12.3662Z" fill="#E1E1E1"/>
<path d="M16.5468 12.3491C16.2472 12.3491 15.9809 12.4672 15.7811 12.6865C15.5647 12.9057 15.4648 13.1756 15.4648 13.496C15.4648 13.8165 15.5647 14.0695 15.7811 14.3056C15.9975 14.5249 16.2472 14.643 16.5468 14.643C16.8465 14.643 17.1128 14.5249 17.3292 14.3056C17.5456 14.0864 17.6621 13.8165 17.6621 13.496C17.6621 13.1756 17.5456 12.9226 17.3292 12.6865C17.1295 12.4503 16.8631 12.3491 16.5468 12.3491Z" fill="#E1E1E1"/>
<path d="M22.789 12.3662C22.4894 12.3662 22.2231 12.4843 22.0233 12.7035C21.8069 12.9228 21.707 13.1927 21.707 13.5131C21.707 13.8336 21.8069 14.0866 22.0233 14.3227C22.2397 14.542 22.4894 14.6601 22.789 14.6601C23.0887 14.6601 23.355 14.542 23.5714 14.3227C23.7878 14.1035 23.9043 13.8336 23.9043 13.5131C23.9043 13.1927 23.7878 12.9228 23.5714 12.7035C23.355 12.4674 23.0887 12.3662 22.789 12.3662Z" fill="#E1E1E1"/>
<path d="M25.5536 4.03418H4.44636C2.83169 4.03418 1.5 5.38351 1.5 7.01956V19.1129C1.5 20.7489 2.83169 22.0983 4.44636 22.0983H12.7361C12.7361 22.0983 14.3342 26.5342 14.9168 26.5342C15.4994 26.5342 17.2306 22.0983 17.2306 22.0983H25.5536C27.1683 22.0983 28.5 20.7489 28.5 19.1129V7.01956C28.5 5.38351 27.1683 4.03418 25.5536 4.03418ZM9.34032 15.1998C8.92417 15.6721 8.27497 15.8745 7.57583 15.8745C6.94328 15.8745 6.47719 15.689 6.14427 15.4191H6.12762V15.7564H4.54624V8.75682H6.12762V11.4386H6.16091C6.59371 11.0675 7.15968 10.9495 7.82552 10.9157C8.39149 10.8989 8.99075 11.2531 9.35697 11.6747C9.70654 12.0964 9.97287 12.7542 9.97287 13.4795C9.97287 14.2722 9.77312 14.7276 9.34032 15.1998ZM12.7528 15.8239H11.1381C11.1381 15.8239 11.1381 12.147 11.1381 11.4892C11.1381 10.4941 10.3557 10.3591 10.3557 10.3591V8.62189C10.3557 8.62189 12.6196 8.75682 12.7528 11.5398C12.7528 12.3325 12.7528 15.8239 12.7528 15.8239ZM19.0949 14.4915C18.9618 14.8119 18.762 15.0818 18.4957 15.3348C18.246 15.5709 17.9464 15.7564 17.6134 15.8914C17.2805 16.0263 16.9309 16.0938 16.5647 16.0938C16.1985 16.0938 15.849 16.0263 15.5327 15.8914C15.1998 15.7564 14.9001 15.5709 14.6504 15.3348C14.3841 15.0818 14.1843 14.795 14.0512 14.4915C13.918 14.1879 13.8514 13.8505 13.8514 13.4963C13.8514 13.1421 13.918 12.8217 14.0512 12.5012C14.1843 12.1976 14.3841 11.9109 14.6504 11.6579C14.9168 11.4217 15.1998 11.2362 15.5327 11.1013C15.8656 10.9663 16.2152 10.8989 16.5647 10.8989C16.9309 10.8989 17.2805 10.9663 17.6134 11.1013C17.9464 11.2362 18.246 11.4217 18.4957 11.6579C18.762 11.9109 18.9451 12.1807 19.0949 12.5012C19.2281 12.8217 19.2947 13.1421 19.2947 13.4963C19.2947 13.8505 19.2281 14.171 19.0949 14.4915ZM25.4538 15.183C25.4538 16.4142 25.2207 17.1564 24.688 17.6792C24.0388 18.3033 23.1233 18.337 22.3576 18.2358V16.9708C23.0068 17.0383 23.889 16.5998 23.889 15.7564V15.436H23.8724C23.5062 15.942 22.9901 16.1275 22.2744 16.1275C21.6252 16.1275 21.0592 15.8914 20.6763 15.436C20.2935 14.9806 20.1104 14.3734 20.1104 13.6144C20.1104 12.7542 20.3268 12.0795 20.7429 11.5735C21.1757 11.0675 21.775 10.8314 22.4741 10.8314C23.09 10.8314 23.4895 10.9832 23.8724 11.3374H23.889V10.9495H25.4704V15.183H25.4538Z" fill="#E1E1E1"/>
</svg>
