<svg width="276" height="32" viewBox="0 0 276 32" fill="none" xmlns="http://www.w3.org/2000/svg">
<path d="M0 0.623379H25.2708L24.7637 3.53247H14.3258V31.3766H10.4802V5.4026L13.9877 3.53247H0V0.623379Z" fill="#D4B297"/>
<path d="M33.6639 0.872728L37.5094 0.457144V16.5403L39.0307 14.1714H55.0046V0.623379H58.8924V31.3766H55.0046V17.039H37.5094V31.3766H33.6639V0.872728Z" fill="#D4B297"/>
<path d="M69.7064 0.623379H91.2585L90.7514 3.53247H75.2846V14.0883H89.6527L89.1878 16.9974H75.2846V28.4675H91.174L90.6669 31.3766H71.3968V5.44416L74.862 3.53247H69.2416L69.7064 0.623379Z" fill="#D4B297"/>
<path d="M115.257 27.8442C116.609 28.232 117.905 28.5368 119.144 28.7584C120.384 28.9801 121.694 29.0909 123.075 29.0909C123.948 29.0909 124.849 29.0078 125.779 28.8416C126.737 28.6753 127.61 28.3983 128.399 28.0104C129.188 27.5948 129.822 27.0823 130.301 26.4727C130.808 25.8355 131.061 25.0597 131.061 24.1455C131.061 23.3143 130.878 22.5939 130.512 21.9844C130.174 21.3472 129.681 20.7654 129.033 20.239C128.413 19.6849 127.667 19.1723 126.793 18.7013C125.948 18.2303 125.018 17.7455 124.004 17.2468C122.849 16.6649 121.75 16.0831 120.708 15.5013C119.666 14.9195 118.736 14.2684 117.919 13.5481C117.102 12.8277 116.454 12.0242 115.975 11.1377C115.496 10.2234 115.257 9.17056 115.257 7.97922C115.257 6.59394 115.552 5.4026 116.144 4.4052C116.736 3.38009 117.539 2.54892 118.553 1.91169C119.567 1.24675 120.736 0.761906 122.06 0.457144C123.413 0.152381 124.849 0 126.371 0C127.723 0 129.061 0.0831175 130.385 0.249352C131.738 0.415586 133.132 0.706494 134.569 1.12208L134.104 4.11429C132.808 3.72641 131.54 3.4355 130.301 3.24156C129.089 3.01991 127.822 2.90909 126.497 2.90909C125.568 2.90909 124.638 2.97836 123.708 3.11689C122.779 3.25541 121.934 3.50476 121.173 3.86493C120.44 4.22511 119.849 4.70996 119.398 5.31948C118.947 5.92901 118.722 6.69091 118.722 7.6052C118.722 8.29784 118.891 8.93507 119.229 9.51688C119.595 10.071 120.102 10.5974 120.75 11.0961C121.398 11.5948 122.173 12.0935 123.075 12.5922C124.004 13.0909 125.033 13.6035 126.159 14.1299C127.258 14.684 128.329 15.2658 129.371 15.8753C130.413 16.4571 131.329 17.1221 132.118 17.8701C132.935 18.5905 133.583 19.4216 134.062 20.3636C134.541 21.3056 134.78 22.3723 134.78 23.5636C134.78 24.9766 134.456 26.2234 133.808 27.3039C133.188 28.3567 132.343 29.2294 131.273 29.9221C130.202 30.6147 128.977 31.1273 127.596 31.4597C126.216 31.8199 124.765 32 123.244 32C121.75 32 120.328 31.903 118.975 31.7091C117.651 31.5429 116.243 31.2381 114.75 30.7948L115.257 27.8442Z" fill="#D4B297"/>
<path d="M145.031 0.872728L148.877 0.457144V16.5403L150.398 14.1714H166.372V0.623379H170.26V31.3766H166.372V17.039H148.877V31.3766H145.031V0.872728Z" fill="#D4B297"/>
<path d="M182.891 0.872728L186.736 0.457144V31.3766H182.891V0.872728Z" fill="#D4B297"/>
<path d="M198.783 5.07013L201.276 3.53247H196.289L196.797 0.623379H202.628V28.5091H217.715V31.3766H198.783V5.07013Z" fill="#D4B297"/>
<path d="M225.5 5.07013L227.993 3.53247H223.007L223.514 0.623379H229.346V28.5091H244.432V31.3766H225.5V5.07013Z" fill="#D4B297"/>
<path d="M260.575 0.623379H265.266C267.069 5.74892 268.858 10.8468 270.633 15.9169C272.436 20.9593 274.225 26.0571 276 31.2104L271.859 31.626L268.731 22.4831H256.138L253.053 31.3766H249.292L260.575 0.623379ZM256.223 22.3169C256.561 21.8736 256.899 21.4442 257.237 21.0286C257.603 20.613 257.984 20.1974 258.378 19.7818H267.929L262.646 4.07273L256.223 22.3169Z" fill="#D4B297"/>
</svg>
