<svg xmlns="http://www.w3.org/2000/svg" width="32" height="32" viewBox="0 0 32 32">
  <g id="그룹_471" data-name="그룹 471" transform="translate(-1455 -959.866)">
    <rect id="guide_box" data-name="guide box" width="32" height="32" transform="translate(1455 959.866)" fill="rgba(255,255,255,0)"/>
    <g id="그룹_109" data-name="그룹 109" transform="translate(1257.602 573.847)">
      <path id="패스_349" data-name="패스 349" d="M227.346,416.526H204.941a2.41,2.41,0,0,1,0-4.821h22.405a2.41,2.41,0,0,1,0,4.821Zm-22.405-3.69a1.28,1.28,0,0,0,0,2.56h22.405a1.28,1.28,0,0,0,0-2.56Z" transform="translate(-1.118 -7.151)" fill="#222"/>
      <path id="패스_350" data-name="패스 350" d="M210.024,423.485a2.164,2.164,0,1,1,2.164-2.164A2.166,2.166,0,0,1,210.024,423.485Zm0-3.2a1.033,1.033,0,1,0,1.033,1.033A1.034,1.034,0,0,0,210.024,420.289Z" transform="translate(-2.56 -9.167)" fill="#222"/>
      <path id="패스_351" data-name="패스 351" d="M230.757,423.485a2.164,2.164,0,1,1,2.164-2.164A2.166,2.166,0,0,1,230.757,423.485Zm0-3.2a1.033,1.033,0,1,0,1.033,1.033A1.034,1.034,0,0,0,230.757,420.289Z" transform="translate(-8.17 -9.167)" fill="#222"/>
      <path id="패스_352" data-name="패스 352" d="M210.617,419.641a.565.565,0,0,1-.565-.565v-1.746a.565.565,0,1,1,1.13,0v1.746A.565.565,0,0,1,210.617,419.641Z" transform="translate(-3.153 -8.52)" fill="#222"/>
      <path id="패스_353" data-name="패스 353" d="M231.35,419.641a.565.565,0,0,1-.565-.565v-1.746a.565.565,0,1,1,1.13,0v1.746A.565.565,0,0,1,231.35,419.641Z" transform="translate(-8.763 -8.52)" fill="#222"/>
      <path id="패스_354" data-name="패스 354" d="M203.7,402.828a.53.53,0,0,1-.565-.485V387.9a.67.67,0,0,0-.207-.476l-.928-.914a.938.938,0,0,0-1.021-.186.734.734,0,0,0-.5.639l1.366,1.057a.439.439,0,0,1,.04.686.633.633,0,0,1-.8.035l-1.533-1.188a.467.467,0,0,1-.179-.284,1.641,1.641,0,0,1,1.126-1.824,2.182,2.182,0,0,1,2.353.428l.928.915a1.564,1.564,0,0,1,.485,1.113v14.443A.53.53,0,0,1,203.7,402.828Z" transform="translate(-0.255 2.897)" fill="#222"/>
      <path id="패스_355" data-name="패스 355" d="M224.793,408.855H211.7a2.149,2.149,0,0,1-2.147-2.147v-7.569a2.15,2.15,0,0,1,2.147-2.147h13.1a2.15,2.15,0,0,1,2.147,2.147v7.569A2.149,2.149,0,0,1,224.793,408.855Zm-13.1-10.732a1.017,1.017,0,0,0-1.016,1.017v7.569a1.017,1.017,0,0,0,1.016,1.016h13.1a1.017,1.017,0,0,0,1.016-1.016v-7.569a1.017,1.017,0,0,0-1.016-1.017Z" transform="translate(-3.017 -3.17)" fill="#222"/>
      <path id="패스_356" data-name="패스 356" d="M223.226,397.133h-6.252a.565.565,0,0,1-.565-.565v-1.482a1.753,1.753,0,0,1,1.751-1.751h3.88a1.753,1.753,0,0,1,1.751,1.751v1.482A.565.565,0,0,1,223.226,397.133ZM217.54,396h5.121v-.917a.621.621,0,0,0-.621-.621h-3.88a.621.621,0,0,0-.621.621Z" transform="translate(-4.873 -2.18)" fill="#222"/>
      <path id="패스_359" data-name="패스 359" d="M226.639,424.671H198.963a.565.565,0,0,1,0-1.131h27.676a.565.565,0,0,1,0,1.131Z" transform="translate(0 -10.353)" fill="#222"/>
      <rect id="사각형_707" data-name="사각형 707" width="1" height="11" transform="translate(220.398 394.236)" fill="#222"/>
      <rect id="사각형_708" data-name="사각형 708" width="1" height="11" transform="translate(209.398 394.236)" fill="#222"/>
    </g>
  </g>
</svg>
