<svg xmlns="http://www.w3.org/2000/svg" width="32" height="32" viewBox="0 0 32 32">
  <g id="_03" data-name="03" transform="translate(14 19.997)">
    <rect id="guide_box" data-name="guide box" width="32" height="32" transform="translate(-14 -19.997)" fill="rgba(255,255,255,0)"/>
    <g id="그룹_462" data-name="그룹 462" transform="translate(-5.329 -15.888)">
      <path id="패스_1169" data-name="패스 1169" d="M10.846,30.619H3.073A2.073,2.073,0,0,1,1,28.546V15.073A2.073,2.073,0,0,1,3.073,13h8.291a2.073,2.073,0,0,1,2.073,2.073v5.7" transform="translate(-2 -6.782)" fill="none" stroke="#222" stroke-linecap="round" stroke-linejoin="round" stroke-width="1.3"/>
      <path id="패스_1170" data-name="패스 1170" d="M13.146,10.591l-.907-2.266A.518.518,0,0,0,11.758,8H10.387a.518.518,0,0,0-.482.325L9,10.591Z" transform="translate(-5.854 -4.373)" fill="none" stroke="#222" stroke-linecap="round" stroke-linejoin="round" stroke-width="1.3"/>
      <path id="패스_1171" data-name="패스 1171" d="M7.638,1V4.627M11.267,1H4.5a1.035,1.035,0,0,0-.8.377L1.874,3.591" transform="translate(-2.421 -1)" fill="none" stroke="#222" stroke-linecap="round" stroke-linejoin="round" stroke-width="1.3"/>
      <path id="패스_1172" data-name="패스 1172" d="M29.713,28.376a.626.626,0,0,1,.193-.039.618.618,0,0,1,.642.592c.1,1.313.147,4.067-.977,5.633-1.142,1.659-3.266,1.495-4.119,1.348a.834.834,0,0,1-.588-.388c-.436-.741-1.336-2.642-.159-4.3C25.812,29.653,28.448,28.741,29.713,28.376Z" transform="translate(-13.141 -13.804)" fill="none" stroke="#222" stroke-linecap="round" stroke-linejoin="round" stroke-width="1.3"/>
      <path id="패스_1173" data-name="패스 1173" d="M24.123,40a30.143,30.143,0,0,1,4.549-7.452" transform="translate(-13.141 -15.684)" fill="none" stroke="#222" stroke-linecap="round" stroke-linejoin="round" stroke-width="1.3"/>
    </g>
  </g>
</svg>
