<svg xmlns="http://www.w3.org/2000/svg" xmlns:xlink="http://www.w3.org/1999/xlink" width="32" height="32" viewBox="0 0 32 32">
  <defs>
    <clipPath id="clip-path">
      <rect id="사각형_713" data-name="사각형 713" width="27.622" height="25.455" fill="none" stroke="#222" stroke-width="1.3"/>
    </clipPath>
  </defs>
  <g id="그룹_456" data-name="그룹 456" transform="translate(3.58 3.153)">
    <rect id="guide_box" data-name="guide box" width="32" height="32" transform="translate(-3.58 -3.153)" fill="rgba(255,255,255,0)"/>
    <g id="그룹_455" data-name="그룹 455" transform="translate(-1 0)" clip-path="url(#clip-path)">
      <path id="패스_1157" data-name="패스 1157" d="M27.471,25.17c-2.878.6-4.674-2.278-4.674-2.278a5.065,5.065,0,0,1-4.174,2.373A5.3,5.3,0,0,1,14.461,22.9a5.065,5.065,0,0,1-4.171,2.367A5.3,5.3,0,0,1,6.129,22.9S3.826,25.824,1,25.223m26.471-4.658c-2.878.6-4.674-2.278-4.674-2.278a5.065,5.065,0,0,1-4.174,2.373,5.3,5.3,0,0,1-4.162-2.367,5.065,5.065,0,0,1-4.171,2.367,5.3,5.3,0,0,1-4.162-2.367S3.826,21.219,1,20.618m9.777-3.182V3.878a2.878,2.878,0,0,1,5.756,0V5.029m2.3,12.658V3.878a2.878,2.878,0,1,1,5.756,0V5.029M10.777,8.483h8.058m-8.058,5.18h8.058" transform="translate(-0.424 -0.425)" fill="none" stroke="#222" stroke-linecap="round" stroke-linejoin="round" stroke-width="1.3"/>
    </g>
  </g>
</svg>
