<svg xmlns="http://www.w3.org/2000/svg" width="32" height="32" viewBox="0 0 32 32">
  <g id="그룹_450" data-name="그룹 450" transform="translate(4.462 3.826)">
    <rect id="guide_box" data-name="guide box" width="32" height="32" transform="translate(-4.462 -3.826)" fill="rgba(255,255,255,0)"/>
    <g id="그룹_470" data-name="그룹 470" transform="translate(-2)">
      <path id="패스_1148" data-name="패스 1148" d="M23.721,21.428a5.359,5.359,0,0,1,2.871,4.287c0,3.693-5.569,6.7-12.439,6.7S1.714,29.427,1.714,25.734a5.674,5.674,0,0,1,3.144-4.306" transform="translate(-0.676 -9.525)" fill="none" stroke="#222" stroke-linecap="round" stroke-linejoin="round" stroke-width="1.5"/>
      <g id="그룹_463" data-name="그룹 463" transform="translate(0.954)">
        <path id="패스_1149" data-name="패스 1149" d="M13.114,5.143c-3.827,4.784,3.827,6.7,0,11.482" transform="translate(-6.426 -2.329)" fill="none" stroke="#222" stroke-linecap="round" stroke-linejoin="round" stroke-width="1.5"/>
        <path id="패스_1150" data-name="패스 1150" d="M23.125,1.714c-3.827,4.784,3.827,10.525,0,15.309" transform="translate(-10.85 -0.814)" fill="none" stroke="#222" stroke-linecap="round" stroke-linejoin="round" stroke-width="1.5"/>
        <path id="패스_1151" data-name="패스 1151" d="M33.136,5.143c-3.827,4.784,3.827,6.7,0,11.482" transform="translate(-15.272 -2.329)" fill="none" stroke="#222" stroke-linecap="round" stroke-linejoin="round" stroke-width="1.5"/>
      </g>
    </g>
  </g>
</svg>
