<svg xmlns="http://www.w3.org/2000/svg" width="32" height="32" viewBox="0 0 32 32">
  <g id="그룹_472" data-name="그룹 472" transform="translate(-1455 -1015.866)">
    <rect id="guide_box" data-name="guide box" width="32" height="32" transform="translate(1455 1015.866)" fill="rgba(255,255,255,0)"/>
    <g id="그룹_465" data-name="그룹 465" transform="translate(1457.031 1015.003)">
      <circle id="타원_119" data-name="타원 119" cx="0.944" cy="0.944" r="0.944" transform="translate(3.805 21.365)" fill="none" stroke="#191919" stroke-linecap="round" stroke-linejoin="round" stroke-width="1"/>
      <circle id="타원_120" data-name="타원 120" cx="0.944" cy="0.944" r="0.944" transform="translate(20.791 21.365)" fill="none" stroke="#191919" stroke-linecap="round" stroke-linejoin="round" stroke-width="1"/>
      <path id="패스_1174" data-name="패스 1174" d="M25.91,27.562a2.664,2.664,0,0,1,.079.644v3.946a1.315,1.315,0,0,1-1.315,1.315H2.315A1.315,1.315,0,0,1,1,32.152V28.206a2.631,2.631,0,0,1,2.63-2.63H14.152m-9.864,0,.456-4.164A2.631,2.631,0,0,1,7.366,19h2.841" transform="translate(-0.458 -7.123)" fill="none" stroke="#191919" stroke-linecap="round" stroke-linejoin="round" stroke-width="1.3"/>
      <path id="패스_1175" data-name="패스 1175" d="M8.946,41v1.973a1.973,1.973,0,0,1-3.946,0V41Zm15.782,0v1.973a1.973,1.973,0,0,1-3.946,0V41Z" transform="translate(-1.828 -14.656)" fill="none" stroke="#191919" stroke-linecap="round" stroke-linejoin="round" stroke-width="1.3"/>
      <circle id="타원_121" data-name="타원 121" cx="6.605" cy="6.605" r="6.605" transform="translate(14.185 3.436)" fill="none" stroke="#191919" stroke-linecap="round" stroke-linejoin="round" stroke-width="1.2"/>
      <path id="패스_1176" data-name="패스 1176" d="M31,13.155V7h1.759a1.759,1.759,0,0,1,0,3.517H31" transform="translate(-11.171 -0.388)" fill="none" stroke="#191919" stroke-linecap="round" stroke-linejoin="round" stroke-width="1.2"/>
    </g>
  </g>
</svg>
