<svg width="204" height="26" viewBox="0 0 204 26" fill="none" xmlns="http://www.w3.org/2000/svg">
<path d="M0 3.38961H15.4561L15.1459 5.20779H8.76188V22.6104H6.40987V6.37662L8.55511 5.20779H0V3.38961Z" fill="#999999"/>
<path d="M20.0776 7.35844L21.9592 7.15065V15.1922L22.7036 14.0078H30.5195V7.23377H32.4218V22.6104H30.5195V15.4416H21.9592V22.6104H20.0776V7.35844Z" fill="#999999"/>
<path d="M37.713 7.23377H48.2582L48.0101 8.68831H40.4423V13.9662H47.4725L47.2451 15.4208H40.4423V21.1558H48.2169L47.9688 22.6104H38.5401V9.64416L40.2356 8.68831H37.4855L37.713 7.23377Z" fill="#999999"/>
<path d="M53.0022 20.4026C53.8292 20.645 54.6219 20.8355 55.38 20.974C56.1382 21.1126 56.9394 21.1818 57.7837 21.1818C58.3179 21.1818 58.8693 21.1299 59.4379 21.026C60.0237 20.9221 60.5579 20.7489 61.0403 20.5065C61.5228 20.2468 61.9105 19.9264 62.2034 19.5455C62.5136 19.1472 62.6687 18.6623 62.6687 18.0909C62.6687 17.5714 62.5567 17.1212 62.3327 16.7403C62.1259 16.342 61.8243 15.9784 61.428 15.6494C61.049 15.303 60.5923 14.9827 60.0582 14.6883C59.5413 14.3939 58.9726 14.0909 58.3523 13.7792C57.6459 13.4156 56.9739 13.0519 56.3363 12.6883C55.6988 12.3247 55.1302 11.9177 54.6305 11.4675C54.1308 11.0173 53.7345 10.5152 53.4415 9.96104C53.1486 9.38961 53.0022 8.7316 53.0022 7.98701C53.0022 7.12121 53.1831 6.37662 53.5449 5.75325C53.9068 5.11255 54.3979 4.59307 55.0182 4.19481C55.6385 3.77922 56.3536 3.47619 57.1634 3.28572C57.9905 3.09524 58.8693 3 59.7997 3C60.6268 3 61.4453 3.05195 62.2551 3.15585C63.0822 3.25974 63.9351 3.44156 64.8139 3.7013L64.5296 5.57143C63.737 5.32901 62.9616 5.14719 62.2034 5.02597C61.4625 4.88745 60.6871 4.81818 59.8773 4.81818C59.3086 4.81818 58.74 4.86147 58.1714 4.94805C57.6028 5.03463 57.0859 5.19048 56.6206 5.41558C56.1726 5.64069 55.8108 5.94372 55.5351 6.32468C55.2594 6.70563 55.1216 7.18182 55.1216 7.75325C55.1216 8.18615 55.2249 8.58442 55.4317 8.94805C55.6557 9.29437 55.9659 9.62338 56.3622 9.93506C56.7585 10.2468 57.2323 10.5584 57.7837 10.8701C58.3523 11.1818 58.9813 11.5022 59.6705 11.8312C60.3425 12.1775 60.9973 12.5411 61.6348 12.9221C62.2723 13.2857 62.8323 13.7013 63.3148 14.1688C63.8145 14.619 64.2108 15.1385 64.5037 15.7273C64.7967 16.316 64.9431 16.9827 64.9431 17.7273C64.9431 18.6104 64.745 19.3896 64.3487 20.0649C63.9696 20.7229 63.4527 21.2684 62.7979 21.7013C62.1431 22.1342 61.3936 22.4545 60.5493 22.6623C59.705 22.8874 58.8176 23 57.8871 23C56.9739 23 56.1037 22.9394 55.2766 22.8182C54.4668 22.7143 53.6052 22.5238 52.692 22.2468L53.0022 20.4026Z" fill="#999999"/>
<path d="M70.7009 7.35844L72.5825 7.15065V15.1922L73.3269 14.0078H81.1428V7.23377H83.0451V22.6104H81.1428V15.4416H72.5825V22.6104H70.7009V7.35844Z" fill="#999999"/>
<path d="M89.2254 7.35844L91.107 7.15065V22.6104H89.2254V7.35844Z" fill="#999999"/>
<path d="M97.0012 9.45714L98.2212 8.68831H95.7813L96.0294 7.23377H98.8828V21.1766H106.265V22.6104H97.0012V9.45714Z" fill="#999999"/>
<path d="M110.074 9.45714L111.294 8.68831H108.854L109.102 7.23377H111.955V21.1766H119.337V22.6104H110.074V9.45714Z" fill="#999999"/>
<path d="M127.236 7.23377H129.531C130.413 9.79654 131.289 12.3455 132.157 14.8805C133.039 17.4017 133.915 19.9506 134.783 22.5273L132.757 22.7351L131.227 18.1636H125.065L123.555 22.6104H121.715L127.236 7.23377ZM125.106 18.0805C125.272 17.8589 125.437 17.6442 125.603 17.4364C125.782 17.2286 125.968 17.0208 126.161 16.813H130.834L128.249 8.95844L125.106 18.0805Z" fill="#999999"/>
<path d="M138.421 20.4026C139.248 20.645 140.041 20.8355 140.799 20.974C141.557 21.1126 142.358 21.1818 143.202 21.1818C143.737 21.1818 144.288 21.1299 144.857 21.026C145.443 20.9221 145.977 20.7489 146.459 20.5065C146.942 20.2468 147.329 19.9264 147.622 19.5455C147.932 19.1472 148.087 18.6623 148.087 18.0909C148.087 17.5714 147.975 17.1212 147.751 16.7403C147.545 16.342 147.243 15.9784 146.847 15.6494C146.468 15.303 146.011 14.9827 145.477 14.6883C144.96 14.3939 144.391 14.0909 143.771 13.7792C143.065 13.4156 142.393 13.0519 141.755 12.6883C141.118 12.3247 140.549 11.9177 140.049 11.4675C139.55 11.0173 139.153 10.5152 138.86 9.96104C138.567 9.38961 138.421 8.7316 138.421 7.98701C138.421 7.12121 138.602 6.37662 138.964 5.75325C139.326 5.11255 139.817 4.59307 140.437 4.19481C141.057 3.77922 141.772 3.47619 142.582 3.28572C143.409 3.09524 144.288 3 145.219 3C146.046 3 146.864 3.05195 147.674 3.15585C148.501 3.25974 149.354 3.44156 150.233 3.7013L149.948 5.57143C149.156 5.32901 148.38 5.14719 147.622 5.02597C146.881 4.88745 146.106 4.81818 145.296 4.81818C144.727 4.81818 144.159 4.86147 143.59 4.94805C143.022 5.03463 142.505 5.19048 142.039 5.41558C141.591 5.64069 141.23 5.94372 140.954 6.32468C140.678 6.70563 140.54 7.18182 140.54 7.75325C140.54 8.18615 140.644 8.58442 140.85 8.94805C141.074 9.29437 141.385 9.62338 141.781 9.93506C142.177 10.2468 142.651 10.5584 143.202 10.8701C143.771 11.1818 144.4 11.5022 145.089 11.8312C145.761 12.1775 146.416 12.5411 147.054 12.9221C147.691 13.2857 148.251 13.7013 148.734 14.1688C149.233 14.619 149.63 15.1385 149.923 15.7273C150.215 16.316 150.362 16.9827 150.362 17.7273C150.362 18.6104 150.164 19.3896 149.767 20.0649C149.388 20.7229 148.871 21.2684 148.217 21.7013C147.562 22.1342 146.812 22.4545 145.968 22.6623C145.124 22.8874 144.236 23 143.306 23C142.393 23 141.523 22.9394 140.695 22.8182C139.886 22.7143 139.024 22.5238 138.111 22.2468L138.421 20.4026Z" fill="#999999"/>
<path d="M156.12 7.35844L158.001 7.15065V15.1922L158.746 14.0078H166.562V7.23377H168.464V22.6104H166.562V15.4416H158.001V22.6104H156.12V7.35844Z" fill="#999999"/>
<path d="M180.454 22.9221C179.407 22.9221 178.483 22.7281 177.684 22.3403C176.884 21.9524 176.209 21.419 175.657 20.7403C175.12 20.0476 174.706 19.2372 174.417 18.3091C174.141 17.3671 174.003 16.3489 174.003 15.2545C174.003 14.0632 174.155 12.9619 174.458 11.9507C174.761 10.9255 175.216 10.0459 175.823 9.31169C176.429 8.56364 177.187 7.98182 178.097 7.56623C179.007 7.15065 180.075 6.94286 181.302 6.94286C182.35 6.94286 183.273 7.1368 184.073 7.52468C184.886 7.91255 185.562 8.45281 186.099 9.14546C186.651 9.82424 187.064 10.6277 187.34 11.5558C187.629 12.484 187.774 13.4952 187.774 14.5896C187.774 15.7948 187.622 16.91 187.319 17.9351C187.016 18.9463 186.561 19.826 185.954 20.574C185.348 21.3082 184.583 21.8831 183.659 22.2987C182.75 22.7143 181.681 22.9221 180.454 22.9221ZM180.703 21.426C181.585 21.426 182.35 21.2597 182.998 20.9273C183.659 20.581 184.204 20.11 184.631 19.5143C185.059 18.9186 185.376 18.219 185.582 17.4156C185.789 16.5983 185.892 15.7186 185.892 14.7766C185.892 14.0563 185.803 13.3221 185.624 12.574C185.458 11.8121 185.183 11.1264 184.797 10.5169C184.411 9.90736 183.907 9.40866 183.287 9.02078C182.681 8.6329 181.936 8.43896 181.054 8.43896C180.158 8.43896 179.386 8.61212 178.738 8.95844C178.104 9.29091 177.573 9.75498 177.146 10.3506C176.719 10.9325 176.402 11.632 176.195 12.4494C176.002 13.2528 175.905 14.1255 175.905 15.0675C175.905 15.7879 175.988 16.529 176.154 17.2909C176.333 18.039 176.609 18.7177 176.981 19.3273C177.367 19.9368 177.863 20.4424 178.469 20.8442C179.076 21.232 179.82 21.426 180.703 21.426Z" fill="#999999"/>
<path d="M196.308 15.0052H197.88C198.431 15.0052 198.948 14.9359 199.43 14.7974C199.927 14.645 200.361 14.4303 200.733 14.1532C201.105 13.8762 201.395 13.5368 201.601 13.1351C201.822 12.7195 201.932 12.2485 201.932 11.7221C201.932 11.2095 201.829 10.7662 201.622 10.3922C201.429 10.0043 201.147 9.68571 200.774 9.43636C200.416 9.18701 199.982 9 199.472 8.87533C198.975 8.75065 198.424 8.68831 197.818 8.68831H195.233V22.6104H193.351V9.64416L195.068 8.68831H192.193C192.221 8.45281 192.249 8.21732 192.276 7.98182C192.318 7.73247 192.366 7.48312 192.421 7.23377H198.789C199.437 7.23377 200.071 7.32381 200.692 7.5039C201.326 7.68398 201.884 7.95411 202.367 8.31429C202.863 8.67446 203.256 9.1316 203.545 9.68571C203.848 10.2398 204 10.8978 204 11.6597C204 12.5325 203.814 13.2736 203.442 13.8831C203.083 14.4926 202.608 14.9844 202.015 15.3584C201.436 15.7325 200.768 16.0095 200.009 16.1896C199.251 16.3558 198.479 16.439 197.694 16.439H195.729L196.308 15.0052Z" fill="#999999"/>
</svg>
