<svg width="300" height="35" viewBox="0 0 300 35" fill="none" xmlns="http://www.w3.org/2000/svg">
<path d="M0 0.68182H27.4683L26.9171 3.86364H15.5715V34.3182H11.3915V5.90909L15.204 3.86364H0V0.68182Z" fill="#F1E3C4"/>
<path d="M36.5912 0.954547L40.7711 0.500002V18.0909L42.4247 15.5H59.7876V0.68182H64.0135V34.3182H59.7876V18.6364H40.7711V34.3182H36.5912V0.954547Z" fill="#F1E3C4"/>
<path d="M75.7679 0.68182H99.194L98.6428 3.86364H81.8311V15.4091H97.4485L96.9433 18.5909H81.8311V31.1364H99.1021L98.5509 34.3182H77.6052V5.95455L81.3718 3.86364H75.2626L75.7679 0.68182Z" fill="#F1E3C4"/>
<path d="M125.279 30.4545C126.749 30.8788 128.157 31.2121 129.505 31.4545C130.852 31.697 132.276 31.8182 133.777 31.8182C134.726 31.8182 135.706 31.7273 136.716 31.5455C137.758 31.3636 138.707 31.0606 139.564 30.6364C140.422 30.1818 141.111 29.6212 141.631 28.9545C142.182 28.2576 142.458 27.4091 142.458 26.4091C142.458 25.5 142.259 24.7121 141.861 24.0455C141.493 23.3485 140.958 22.7121 140.253 22.1364C139.58 21.5303 138.768 20.9697 137.819 20.4545C136.9 19.9394 135.89 19.4091 134.787 18.8636C133.532 18.2273 132.337 17.5909 131.204 16.9545C130.071 16.3182 129.061 15.6061 128.173 14.8182C127.285 14.0303 126.58 13.1515 126.06 12.1818C125.539 11.1818 125.279 10.0303 125.279 8.72727C125.279 7.21212 125.6 5.90909 126.244 4.81818C126.887 3.69697 127.759 2.78788 128.862 2.09091C129.964 1.36364 131.235 0.833334 132.674 0.500002C134.144 0.166667 135.706 0 137.359 0C138.829 0 140.284 0.0909097 141.723 0.272729C143.193 0.454547 144.709 0.772728 146.271 1.22727L145.765 4.5C144.357 4.07576 142.979 3.75758 141.631 3.54545C140.315 3.30303 138.937 3.18182 137.497 3.18182C136.487 3.18182 135.476 3.25758 134.466 3.40909C133.455 3.56061 132.536 3.83333 131.71 4.22727C130.913 4.62121 130.27 5.15152 129.78 5.81818C129.29 6.48485 129.045 7.31818 129.045 8.31818C129.045 9.07576 129.229 9.77273 129.597 10.4091C129.995 11.0152 130.546 11.5909 131.25 12.1364C131.955 12.6818 132.797 13.2273 133.777 13.7727C134.787 14.3182 135.905 14.8788 137.13 15.4545C138.324 16.0606 139.488 16.697 140.621 17.3636C141.754 18 142.749 18.7273 143.606 19.5455C144.494 20.3333 145.199 21.2424 145.719 22.2727C146.24 23.303 146.5 24.4697 146.5 25.7727C146.5 27.3182 146.148 28.6818 145.444 29.8636C144.77 31.0152 143.851 31.9697 142.688 32.7273C141.524 33.4848 140.192 34.0455 138.692 34.4091C137.191 34.803 135.614 35 133.96 35C132.337 35 130.791 34.8939 129.321 34.6818C127.882 34.5 126.351 34.1667 124.728 33.6818L125.279 30.4545Z" fill="#F1E3C4"/>
<path d="M157.642 0.954547L161.822 0.500002V18.0909L163.476 15.5H180.839V0.68182H185.065V34.3182H180.839V18.6364H161.822V34.3182H157.642V0.954547Z" fill="#F1E3C4"/>
<path d="M198.794 0.954547L202.974 0.500002V34.3182H198.794V0.954547Z" fill="#F1E3C4"/>
<path d="M216.068 5.54546L218.778 3.86364H213.358L213.909 0.68182H220.248V31.1818H236.646V34.3182H216.068V5.54546Z" fill="#F1E3C4"/>
<path d="M245.109 5.54546L247.819 3.86364H242.399L242.95 0.68182H249.289V31.1818H265.687V34.3182H245.109V5.54546Z" fill="#F1E3C4"/>
<path d="M283.234 0.68182H288.333C290.293 6.28788 292.237 11.8636 294.166 17.4091C296.126 22.9242 298.071 28.5 300 34.1364L295.499 34.5909L292.099 24.5909H278.411L275.058 34.3182H270.97L283.234 0.68182ZM278.503 24.4091C278.871 23.9242 279.238 23.4545 279.605 23C280.004 22.5455 280.417 22.0909 280.846 21.6364H291.227L285.485 4.45455L278.503 24.4091Z" fill="#F1E3C4"/>
</svg>
