<svg width="290" height="26" viewBox="0 0 290 26" fill="none" xmlns="http://www.w3.org/2000/svg">
<rect width="74" height="26" transform="translate(149)" fill="#4F4F4F"/>
<rect width="67" height="26" transform="translate(223)" fill="#7E7E7E"/>
<path d="M0 4.3392H13.2445L12.9787 5.92211H7.50815V21.0729H5.49269V6.9397L7.33097 5.92211H0V4.3392Z" fill="#999999"/>
<path d="M17.6433 4.47487L19.6587 4.24874V13L20.456 11.7111H28.828V4.3392H30.8656V21.0729H28.828V13.2714H19.6587V21.0729H17.6433V4.47487Z" fill="#999999"/>
<path d="M36.5332 4.3392H47.8287L47.5629 5.92211H39.4567V11.6658H46.987L46.7434 13.2487H39.4567V19.49H47.7844L47.5186 21.0729H37.4191V6.96231L39.2353 5.92211H36.2896L36.5332 4.3392Z" fill="#999999"/>
<path d="M60.4061 19.1508C61.1148 19.3618 61.794 19.5276 62.4437 19.6482C63.0934 19.7688 63.78 19.8291 64.5035 19.8291C64.9612 19.8291 65.4337 19.7839 65.9209 19.6935C66.4229 19.603 66.8807 19.4523 67.2941 19.2412C67.7075 19.0151 68.0397 18.7362 68.2908 18.4045C68.5565 18.0578 68.6894 17.6357 68.6894 17.1382C68.6894 16.6859 68.5935 16.294 68.4015 15.9623C68.2243 15.6156 67.9659 15.299 67.6263 15.0126C67.3015 14.7111 66.9102 14.4322 66.4525 14.1759C66.0095 13.9196 65.5223 13.6558 64.9907 13.3844C64.3853 13.0678 63.8095 12.7513 63.2632 12.4347C62.7169 12.1181 62.2296 11.7638 61.8014 11.3719C61.3732 10.9799 61.0336 10.5427 60.7826 10.0603C60.5316 9.56281 60.4061 8.98995 60.4061 8.34171C60.4061 7.58794 60.5611 6.9397 60.8712 6.39699C61.1813 5.8392 61.6021 5.38693 62.1336 5.0402C62.6652 4.67839 63.2779 4.41457 63.9719 4.24874C64.6806 4.08291 65.4337 4 66.231 4C66.9397 4 67.6411 4.04523 68.3351 4.13568C69.0438 4.22613 69.7747 4.38442 70.5277 4.61055L70.2841 6.23869C69.6049 6.02764 68.9404 5.86935 68.2908 5.76382C67.6558 5.64322 66.9914 5.58291 66.2974 5.58291C65.8102 5.58291 65.3229 5.6206 64.8357 5.69598C64.3484 5.77136 63.9055 5.90704 63.5068 6.10301C63.1229 6.299 62.8128 6.56281 62.5766 6.89447C62.3403 7.22613 62.2222 7.6407 62.2222 8.13819C62.2222 8.51508 62.3108 8.86181 62.488 9.17839C62.6799 9.4799 62.9457 9.76633 63.2853 10.0377C63.6249 10.309 64.031 10.5804 64.5035 10.8518C64.9907 11.1231 65.5296 11.402 66.1203 11.6884C66.6961 11.99 67.2572 12.3065 67.8035 12.6382C68.3498 12.9548 68.8297 13.3166 69.2431 13.7236C69.6713 14.1156 70.0109 14.5678 70.2619 15.0804C70.5129 15.593 70.6384 16.1734 70.6384 16.8216C70.6384 17.5905 70.4686 18.2688 70.129 18.8568C69.8042 19.4296 69.3612 19.9045 68.8002 20.2814C68.2391 20.6583 67.5968 20.9372 66.8733 21.1181C66.1498 21.3141 65.3894 21.4121 64.592 21.4121C63.8095 21.4121 63.0638 21.3593 62.3551 21.2538C61.6611 21.1633 60.9229 20.9975 60.1403 20.7563L60.4061 19.1508Z" fill="#999999"/>
<path d="M76.0109 4.47487L78.0263 4.24874V13L78.8237 11.7111H87.1956V4.3392H89.2332V21.0729H87.1956V13.2714H78.0263V21.0729H76.0109V4.47487Z" fill="#999999"/>
<path d="M95.8532 4.47487L97.8686 4.24874V21.0729H95.8532V4.47487Z" fill="#999999"/>
<path d="M104.182 6.75879L105.489 5.92211H102.875L103.141 4.3392H106.198V19.5126H114.104V21.0729H104.182V6.75879Z" fill="#999999"/>
<path d="M118.185 6.75879L119.491 5.92211H116.878L117.144 4.3392H120.2V19.5126H128.107V21.0729H118.185V6.75879Z" fill="#999999"/>
<path d="M136.568 4.3392H139.026C139.971 7.12814 140.909 9.90201 141.839 12.6608C142.784 15.4045 143.722 18.1784 144.652 20.9824L142.481 21.2085L140.842 16.2337H134.242L132.626 21.0729H130.654L136.568 4.3392ZM134.287 16.1432C134.464 15.902 134.641 15.6683 134.818 15.4422C135.01 15.2161 135.209 14.99 135.416 14.7638H140.422L137.653 6.21608L134.287 16.1432Z" fill="#999999"/>
<path d="M153.007 7.52764L154.845 6.48744H151.745L151.988 4.90452H158.876C159.969 4.90452 160.98 5.09297 161.911 5.46985C162.856 5.84673 163.668 6.38945 164.347 7.09799C165.041 7.79146 165.58 8.64322 165.964 9.65327C166.348 10.6482 166.539 11.7789 166.539 13.0452C166.539 14.3116 166.34 15.4724 165.941 16.5276C165.558 17.5829 165.004 18.495 164.28 19.2638C163.572 20.0176 162.701 20.6055 161.667 21.0276C160.648 21.4347 159.504 21.6382 158.234 21.6382H153.007V7.52764ZM155.023 6.48744V20.0553H158.079C159.068 20.0553 159.954 19.8819 160.737 19.5352C161.519 19.1734 162.184 18.6834 162.73 18.0653C163.276 17.4472 163.69 16.7236 163.97 15.8945C164.266 15.0503 164.413 14.1457 164.413 13.1809C164.413 12.2161 164.266 11.3266 163.97 10.5126C163.69 9.68342 163.276 8.97487 162.73 8.38694C162.184 7.78392 161.512 7.31658 160.715 6.98493C159.932 6.65327 159.046 6.48744 158.057 6.48744H155.023Z" fill="white"/>
<path d="M178.616 22C176.549 22 174.954 21.4196 173.832 20.2588C172.71 19.0829 172.148 17.3643 172.148 15.103V4.90452H174.164V15.3518C174.164 16.9648 174.533 18.201 175.271 19.0603C176.024 19.9196 177.139 20.3492 178.616 20.3492C180.092 20.3492 181.2 19.9196 181.938 19.0603C182.676 18.201 183.045 16.9648 183.045 15.3518V4.90452H185.083V15.103C185.083 17.3643 184.522 19.0829 183.4 20.2588C182.277 21.4196 180.683 22 178.616 22Z" fill="white"/>
<path d="M189.222 4.90452H202.467L202.201 6.48744H196.731V21.6382H194.715V7.50503L196.553 6.48744H189.222V4.90452Z" fill="white"/>
<path d="M210.387 14.8995C209.413 13.2111 208.438 11.5452 207.464 9.90201C206.504 8.25879 205.537 6.59297 204.562 4.90452H206.932C207.685 6.29146 208.446 7.65578 209.213 8.99749C209.981 10.3392 210.756 11.696 211.539 13.0678C212.292 11.696 213.03 10.3392 213.754 8.99749C214.492 7.65578 215.238 6.29146 215.991 4.90452H218.073L212.447 14.8995V21.6382H210.387V14.8995Z" fill="white"/>
<path d="M229.003 6.48744C229.032 6.23116 229.062 5.97487 229.091 5.71859C229.136 5.44724 229.187 5.17588 229.247 4.90452H239.501C239.471 5.17588 239.435 5.44724 239.39 5.71859C239.346 5.97487 239.309 6.23116 239.28 6.48744H232.17V12.3216H238.239C238.209 12.5779 238.172 12.8417 238.128 13.1131C238.098 13.3693 238.069 13.6256 238.039 13.8819H232.17V21.6382H230.132V7.52764L231.949 6.48744H229.003Z" fill="white"/>
<path d="M244.419 7.52764L246.257 6.48744H243.178C243.208 6.23116 243.238 5.97487 243.267 5.71859C243.311 5.44724 243.363 5.17588 243.422 4.90452H250.354C251.107 4.90452 251.816 5.01759 252.481 5.24372C253.145 5.45477 253.728 5.76382 254.23 6.17086C254.732 6.57789 255.124 7.07538 255.404 7.66332C255.699 8.25126 255.847 8.91457 255.847 9.65327C255.847 10.3166 255.722 10.9121 255.471 11.4397C255.22 11.9673 254.873 12.4347 254.43 12.8417C254.001 13.2337 253.485 13.5578 252.879 13.8141C252.289 14.0553 251.646 14.2211 250.952 14.3116L256.091 21.5477L253.765 21.7513C252.082 19.3543 250.399 16.9347 248.715 14.4925H246.434V21.6382H244.419V7.52764ZM246.434 6.48744V13.1809H249.38C249.749 13.1809 250.148 13.1508 250.576 13.0905C251.019 13.0151 251.41 12.8945 251.75 12.7286C252.34 12.4573 252.791 12.0653 253.101 11.5528C253.411 11.0402 253.566 10.4296 253.566 9.72111C253.566 9.22362 253.47 8.7789 253.278 8.38694C253.086 7.99497 252.82 7.65578 252.481 7.36935C252.156 7.08291 251.764 6.86432 251.307 6.71357C250.864 6.56281 250.377 6.48744 249.845 6.48744H246.434Z" fill="white"/>
<path d="M260.582 4.90452H271.878L271.612 6.48744H263.506V12.2312H271.036L270.793 13.8141H263.506V20.0553H271.834L271.568 21.6382H261.468V7.52764L263.284 6.48744H260.339L260.582 4.90452Z" fill="white"/>
<path d="M276.705 4.90452H288L287.734 6.48744H279.628V12.2312H287.158L286.915 13.8141H279.628V20.0553H287.956L287.69 21.6382H277.59V7.52764L279.407 6.48744H276.461L276.705 4.90452Z" fill="white"/>
</svg>
